<svg xmlns="http://www.w3.org/2000/svg" viewBox="0 0 2044.46 2048"><defs><style>.cls-1{fill:#231815;}</style></defs><g id="레이어_2" data-name="레이어 2"><g id="레이어_1-2" data-name="레이어 1"><path class="cls-1" d="M1020.46,0C482.57,0,41.88,414.76,0,941.88l548.83,226.91A288.09,288.09,0,0,1,712,1118.39q8.14,0,16.16.45L972.2,765.06c0-1.67,0-3.31,0-5,0-212.93,173.23-386.19,386.18-386.19s386.17,173.26,386.17,386.19-173.24,386.2-386.17,386.2c-2.94,0-5.85-.07-8.76-.14l-348.11,248.38c.19,4.55.34,9.13.34,13.72,0,159.85-130,289.88-289.86,289.88-140.3,0-257.61-100.17-284.19-232.77L35.27,1303.07C156.79,1732.89,551.68,2048,1020.46,2048c565.55,0,1024-458.49,1024-1024S1586,0,1020.46,0Z"/><path class="cls-1" d="M641.71,1553.76l-125.78-52A216.55,216.55,0,0,0,628,1608.41c110.68,46.12,238.3-6.41,284.44-117.16A217.18,217.18,0,0,0,635,1204.39l130,53.72a160.15,160.15,0,0,1-123.21,295.65Z"/><path class="cls-1" d="M1615.66,760.07c0-141.88-115.43-257.33-257.31-257.33S1101,618.19,1101,760.07s115.45,257.3,257.33,257.3S1615.66,902,1615.66,760.07Zm-450.19-.45c0-106.76,86.56-193.29,193.31-193.29s193.31,86.53,193.31,193.29-86.55,193.29-193.31,193.29S1165.47,866.39,1165.47,759.62Z"/></g></g></svg>